<?xml version="1.0" encoding="UTF-8" standalone="no"?>
<!DOCTYPE svg PUBLIC "-//W3C//DTD SVG 1.1//EN" "http://www.w3.org/Graphics/SVG/1.1/DTD/svg11.dtd">
<svg width="100%" height="100%" viewBox="0 0 400 300" version="1.1" xmlns="http://www.w3.org/2000/svg" xmlns:xlink="http://www.w3.org/1999/xlink" xml:space="preserve" xmlns:serif="http://www.serif.com/" style="fill-rule:evenodd;clip-rule:evenodd;stroke-linecap:round;stroke-linejoin:round;stroke-miterlimit:1.5;">
    <defs>
            <filter id="iconfilter" primitiveUnits="objectBoundingBox" >
                <feFlood flood-color="rgb(13,37,151)"/>


            <feOffset>
                    <animate attributeName="dy" from="1" to="0" dur="5s" />
            </feOffset>

            <feComposite operator="in" in2="SourceGraphic" />
            <feComposite operator="over" in2="SourceGraphic" />
    </filter>
    </defs>
    <g>
        <g transform="matrix(1.84039,0,0,1.76089,-168.549,-115.737)" filter="url(#iconfilter)">
            <path d="M151.856,125.09C160.846,106.708 179.147,94.121 200.238,94.121C218.867,94.121 235.319,103.941 245.106,118.899C240.506,124.985 235.717,127.284 228.858,125.813C228.108,125.662 227.332,125.86 226.733,126.356C226.134,126.852 225.772,127.597 225.741,128.395C225.506,133.543 225.613,140.375 230.175,140.328C233.47,140.294 234.894,144.304 238.81,145.177L240.702,148.772C239.475,146.309 239.907,147.735 234.459,149.092C229.671,150.285 227.234,151.613 225.25,153.978C222.677,157.045 221.712,160.504 220.109,164.507C219.638,165.627 219.769,166.922 220.454,167.914C221.138,168.905 222.273,169.445 223.437,169.332C226.143,169.101 229.012,169.62 232.761,170.132C236.019,170.576 237.179,175.277 237.901,176.036C240.936,179.225 242.232,183.136 242.614,186.429C238.198,192.184 232.725,197.018 226.508,200.614L206.522,196.425C202.519,195.586 198.397,195.586 194.394,196.425L174.082,200.682C157.289,191.024 145.901,172.346 145.901,150.911C145.901,145.216 146.705,139.715 148.209,134.534C149.545,136.581 150.676,138.856 151.345,141.648C151.998,144.387 153.716,146.717 156.084,148.076C158.451,149.435 161.254,149.7 163.817,148.806C165.746,148.133 167.119,147.654 167.119,147.654C167.119,147.654 168.823,150.22 170.147,152.21C170.749,153.116 171.854,153.491 172.85,153.127C173.363,152.948 173.391,152.885 171.885,148.071C171.312,146.239 174.928,142.548 176.523,140.503C178.005,138.602 178.787,135.163 180.962,134.795C189.693,133.317 182.956,131.056 182.602,129.203C178.8,127.88 169.119,130.732 171.66,127.28C174.321,123.666 182.798,125.607 172.327,119.321C169.228,117.269 165.368,116.924 161.981,118.397C161.425,118.638 160.933,118.829 160.723,119.006C158.618,120.785 155.162,123.097 151.856,125.09Z" style="fill:rgb(255,190,115);stroke:black;stroke-width:1.16px;"/>
        </g>
        <g transform="matrix(1.84039,0,0,1.76089,-168.549,-115.737)">
            <path d="M254.522,148.772L254.557,150.21L243.826,148.772L254.522,148.772Z" style="fill:rgb(67,95,252);stroke:black;stroke-width:1.16px;"/>
        </g>
        <g transform="matrix(1,0,0,0.922914,0,19.6594)">
            <path d="M151.829,236.19L189.21,228.067C196.578,226.466 204.165,226.466 211.532,228.067L248.313,236.059C233.987,244.679 217.501,249.58 199.966,249.58C182.52,249.58 166.112,244.729 151.829,236.19Z" style="fill:white;stroke:black;stroke-width:2.17px;"/>
        </g>
        <path d="M134.98,177.804C129.051,176.04 123.026,172.532 116.854,166.431C116.442,166.023 116.085,165.562 115.794,165.06C114.807,163.364 112.452,159.309 112.452,159.309L115.852,149.997L116.021,143.199C113.056,140.782 110.923,137.455 109.984,133.689C108.753,128.772 106.672,124.767 104.213,121.163C105.953,115.38 108.202,109.817 110.925,104.532C117.009,101.022 123.37,96.951 127.245,93.819C127.63,93.507 128.536,93.172 129.559,92.747C135.792,90.154 142.897,90.76 148.599,94.373C167.871,105.442 152.27,102.024 147.372,108.389C142.695,114.467 160.513,109.445 167.509,111.774C168.162,115.038 180.559,119.019 164.492,121.622C160.489,122.27 159.049,128.325 156.321,131.673C153.387,135.274 146.731,141.774 147.786,145C150.557,153.476 150.506,153.588 149.562,153.903C147.73,154.544 145.695,153.883 144.588,152.289C142.15,148.784 139.015,144.266 139.015,144.266C139.015,144.266 136.489,145.109 132.937,146.294C132.662,146.386 132.385,146.471 132.106,146.549C129.509,150.436 125.634,155.383 126.192,159.91C126.928,165.875 132.182,171.562 137.038,176.13L138.429,174.999C140.66,173.185 143.852,173.166 146.104,174.953C150.052,178.085 155.614,182.497 155.614,182.497C155.614,182.497 160.528,183.441 164.608,184.224C165.741,184.443 166.685,185.223 167.114,186.294C167.542,187.366 167.396,188.582 166.725,189.521C156.759,203.447 154.845,215.765 155.798,227.541C153.373,228.963 151.068,219.884 145.258,212.817C142.187,209.082 142.515,199.176 133.774,196.362C132.946,196.095 132.198,195.622 131.602,194.988C130.173,193.492 127.515,190.666 125.724,188.763C125.252,188.26 125.009,187.584 125.055,186.896C125.101,186.207 125.431,185.569 125.966,185.134L134.98,177.804Z" style="fill:rgb(0,200,90);stroke:black;stroke-width:2.08px;"/>
        <g transform="matrix(-0.506608,-6.16331e-17,8.14575e-17,-0.663684,277.681,168.885)">
            <path d="M170.5,106.811C172.01,104.625 175.053,103.314 178.285,103.456C181.517,103.598 184.344,105.167 185.516,107.47C188.003,112.358 190.691,117.639 192.593,121.377C194.16,124.456 197.851,126.607 202.155,126.948C203.61,127.063 205.129,127.184 206.539,127.296C207.941,127.407 209.193,128.013 209.923,128.933C210.654,129.853 210.778,130.98 210.258,131.98C208.779,134.826 206.909,138.425 205.844,140.474C205.305,141.512 204.234,142.337 202.879,142.758C196.609,144.709 178.273,150.412 173.045,152.039C172.116,152.327 171.124,152.48 170.121,152.488C166.497,152.516 157.318,152.589 152.926,152.623C151.37,152.636 149.861,152.217 148.678,151.445C146.611,150.096 143.181,147.857 140.423,146.057C137.791,144.339 136.72,141.603 137.688,139.064C139.468,134.39 142.283,127 143.646,123.423C144.146,122.112 145.404,121.048 147.061,120.535C150.866,119.358 157.893,117.183 161.87,115.952C163.77,115.364 165.338,114.282 166.295,112.897C167.355,111.363 168.877,109.16 170.5,106.811Z" style="fill:rgb(0,199,90);stroke:black;stroke-width:3.53px;"/>
        </g>
        <g transform="matrix(0.511609,0,0,0.482382,152.969,57.8597)">
            <path d="M147.332,85.209C148.966,84.704 150.69,84.622 152.36,84.967C155.522,85.622 161.09,86.774 165.865,87.762C167.755,88.153 169.322,89.548 170.014,91.453C170.705,93.358 170.424,95.507 169.27,97.141C167.882,99.105 166.395,101.209 165.035,103.134C162.195,107.153 162.336,112.716 165.374,116.569C166.032,117.403 166.711,118.264 167.383,119.116C168.66,120.735 169.026,122.953 168.344,124.936C167.661,126.919 166.033,128.366 164.073,128.732C156.138,130.212 145.069,132.277 138.324,133.535C137.082,133.768 135.809,133.378 134.874,132.48C133.94,131.582 133.449,130.276 133.546,128.942C136.409,124.433 141.36,119.316 140.163,115.635C138.73,111.226 131.119,110.932 125.528,107.843C123.33,106.629 121.483,104.928 119.984,103.044C118.678,101.447 118.229,99.254 118.793,97.226C119.356,95.198 120.855,93.614 122.769,93.023C130.355,90.45 142.217,86.788 147.332,85.209Z" style="fill:rgb(0,199,90);stroke:black;stroke-width:4.19px;"/>
        </g>
        <path d="M282.541,93.631C292.874,108.709 299.174,126.764 299.871,146.234L280.186,146.234L299.935,148.765L299.966,150C299.966,173.664 291.729,195.419 277.955,212.543C277.251,206.746 274.866,199.858 269.282,194.243C267.952,192.906 265.817,184.629 259.822,183.846C252.921,182.945 247.642,182.03 242.662,182.437C240.519,182.636 238.43,181.687 237.171,179.941C235.912,178.195 235.671,175.913 236.537,173.942C239.488,166.892 241.264,160.801 245.998,155.401C249.65,151.237 254.134,148.899 262.946,146.798C272.973,144.407 272.177,141.896 274.436,146.234L270.954,139.903C263.747,138.366 261.127,131.305 255.063,131.365C246.666,131.448 246.469,119.417 246.903,110.352C246.959,108.947 247.625,107.636 248.727,106.762C249.83,105.889 251.258,105.539 252.639,105.806C265.262,108.397 274.075,104.347 282.541,93.631Z" style="fill:rgb(0,199,90);stroke:black;stroke-width:2.08px;"/>
    </g>
</svg>
