<?xml version="1.0" encoding="UTF-8" standalone="no"?>
<!DOCTYPE svg PUBLIC "-//W3C//DTD SVG 1.1//EN" "http://www.w3.org/Graphics/SVG/1.1/DTD/svg11.dtd">
<svg width="100%" height="100%" viewBox="0 0 800 600" version="1.1" xmlns="http://www.w3.org/2000/svg" xmlns:xlink="http://www.w3.org/1999/xlink" xml:space="preserve" xmlns:serif="http://www.serif.com/" style="fill-rule:evenodd;clip-rule:evenodd;stroke-linecap:round;stroke-linejoin:round;stroke-miterlimit:1.5;">
    <g transform="matrix(1,0,0,1,-42.2986,19.8904)">
        <ellipse cx="441.326" cy="213.729" rx="88.804" ry="86.271" style="fill:rgb(235,235,235);fill-opacity:0;stroke:rgb(0,128,255);stroke-width:20px;"/>
    </g>
    <g transform="matrix(0.92692,0,0,0.75663,28.1883,80.8392)">
        <path d="M484.748,330L548.909,330C571.629,330 590.076,346.803 590.076,367.5L590.076,442.5C590.076,463.197 571.629,480 548.909,480L251.244,480C228.523,480 210.077,463.197 210.077,442.5L210.077,367.5C210.077,346.803 228.523,330 251.244,330L315.405,330C335.811,353.446 366.183,368.325 400.076,368.325C433.97,368.325 464.342,353.446 484.748,330Z" style="fill:rgb(235,235,235);fill-opacity:0;stroke:rgb(0,128,255);stroke-width:23.64px;"/>
    </g>
</svg>
